# xmcd
#
# Track frame offsets: 
#        150
#        30300
#        53302
#        70597
#        93617
#        111917
#        129654
#        146925
#        163084
#        193947
#
# Disc length: 2811 seconds
#
# Revision: 1
# Processed by: cddbd v1.5.2PL0 Copyright (c) Steve Scherf et al.
# Submitted via: ExactAudioCopy v0.99pb4
#
DISCID=8b0af90a
DTITLE=Sven Henriksen - Rød Pust: Sven Henriksen Synger Tom Waits
DYEAR=1996
DGENRE=Alternative
TTITLE0=Julekort Fra Ei Hore I Minneapolis (Christmascard From A Hooke
TTITLE0=r In Minneapolis)
TTITLE1=Her I Gata Vår (In The Neighbourhood)
TTITLE2=En Strevsom Mann (Down In A Hole)
TTITLE3=Soldatens Ting (Soldiers Things)
TTITLE4=En Rød Sko Ved Butikken (Red Shoes By The Drugstore)
TTITLE5=Sverdfisktrompet (Swordfishtrombone)
TTITLE6=Rikstelefon Fra Istanbul (Telephonecall From Istanbull)
TTITLE7=Der Hvor Regnbuen Bor (Yesterday Is Here)
TTITLE8=Romeo Er Såra (Romeo Is Bleedin')
TTITLE9=Pianoet Er Dritings (The Piano Has Been Drinking)
EXTD=
EXTT0=
EXTT1=
EXTT2=
EXTT3=
EXTT4=
EXTT5=
EXTT6=
EXTT7=
EXTT8=
EXTT9=
PLAYORDER=
